<?xml version="1.0" encoding="UTF-8"?>
<svg id="Ebene_1" xmlns="http://www.w3.org/2000/svg" xmlns:xlink="http://www.w3.org/1999/xlink" version="1.1" viewBox="0 0 155.8 155.6">
  <!-- Generator: Adobe Illustrator 29.1.0, SVG Export Plug-In . SVG Version: 2.1.0 Build 142)  -->
  <defs>
    <style>
      .st0 {
        fill: #171818;
      }

      .st1 {
        fill: #1f2020;
      }

      .st2 {
        fill: #070707;
      }

      .st3 {
        fill: #0e0f0f;
      }

      .st4 {
        fill: #323232;
      }

      .st5 {
        fill: #111;
      }

      .st6 {
        fill: #2b2b2b;
      }

      .st7 {
        fill: #363737;
      }

      .st8 {
        fill: #1c1d1c;
      }

      .st9 {
        fill: #050505;
      }

      .st10 {
        fill: #010101;
      }

      .st11 {
        fill: #181919;
      }

      .st12 {
        fill: #151616;
      }

      .st13 {
        fill: #393939;
      }

      .st14 {
        fill: #2c2d2d;
      }

      .st15 {
        fill: #3c3c3c;
      }

      .st16 {
        fill: #282928;
      }

      .st17 {
        fill: url(#Unbenannter_Verlauf_2);
      }

      .st18 {
        fill: url(#Unbenannter_Verlauf_4);
      }

      .st19 {
        fill: url(#Unbenannter_Verlauf_3);
      }

      .st20 {
        fill: #363636;
      }

      .st21 {
        fill: #161717;
      }

      .st22 {
        fill: #232424;
      }

      .st23 {
        fill: #030303;
      }

      .st24 {
        fill: #2f3030;
      }

      .st25 {
        fill: #2f302f;
      }

      .st26 {
        fill: #282929;
      }

      .st27 {
        fill: #222323;
      }

      .st28 {
        fill: #202121;
      }

      .st29 {
        fill: #3b3b3b;
      }

      .st30 {
        fill: #313232;
      }

      .st31 {
        fill: url(#Unbenannter_Verlauf_6);
        stroke: #010101;
        stroke-width: .8px;
      }

      .st32 {
        fill: #3e3e3e;
      }

      .st33 {
        fill: #212222;
      }

      .st34 {
        fill: #292a29;
      }

      .st35 {
        fill: #343534;
      }

      .st36 {
        fill: #3a3a3a;
      }

      .st37 {
        fill: #111212;
      }

      .st38 {
        fill: #2d2e2e;
      }

      .st39 {
        fill: #373737;
      }

      .st40 {
        fill: #3d3d3d;
      }

      .st41 {
        fill: #181a19;
      }

      .st42 {
        fill: #212221;
      }

      .st43 {
        fill: #121313;
      }

      .st44 {
        fill: #060606;
      }

      .st45 {
        fill: #020202;
      }

      .st46 {
        fill: #0f1010;
      }

      .st47 {
        fill: #353636;
      }

      .st48 {
        fill: #292a2a;
      }

      .st49 {
        fill: #383938;
      }

      .st50 {
        fill: #0b0b0b;
      }

      .st51 {
        fill: #fff;
      }

      .st52 {
        fill: #373838;
      }

      .st53 {
        fill: #666;
      }

      .st54 {
        fill: #252626;
      }

      .st55 {
        fill: #262727;
      }

      .st56 {
        fill: #040404;
      }

      .st57 {
        fill: #1e1f1f;
      }

      .st58 {
        fill: #1a1b1b;
      }

      .st59 {
        fill: #080808;
      }

      .st60 {
        fill: #101111;
      }

      .st61 {
        fill: #3c3d3c;
      }

      .st62 {
        fill: #0d0e0e;
      }

      .st63 {
        fill: #3b3c3b;
      }

      .st64 {
        opacity: .7;
      }

      .st65 {
        opacity: .6;
      }

      .st66 {
        opacity: .3;
      }

      .st67 {
        fill: #383939;
      }

      .st68 {
        fill: #0c0c0c;
      }

      .st69 {
        fill: #2a2b2a;
      }

      .st70 {
        fill: #1d1e1e;
      }

      .st71 {
        fill: url(#Unbenannter_Verlauf);
        opacity: .2;
      }

      .st71, .st72 {
        isolation: isolate;
      }

      .st73 {
        fill: #202120;
      }

      .st74 {
        fill: #2a2b2b;
      }

      .st75 {
        fill: #383838;
      }

      .st76 {
        fill: #303131;
      }

      .st77 {
        fill: #393a3a;
      }

      .st78 {
        fill: #131413;
      }

      .st79 {
        fill: #333434;
      }

      .st80 {
        fill: #0a0a0a;
      }

      .st81 {
        fill: #1c1d1d;
      }

      .st82 {
        fill: #191a1a;
      }

      .st83 {
        fill: #131414;
      }

      .st84 {
        fill: #303130;
      }

      .st85 {
        fill: #2e2f2f;
      }

      .st86 {
        fill: #3a3b3b;
      }

      .st87 {
        fill: #1b1c1c;
      }

      .st88 {
        fill: #323333;
      }

      .st89 {
        fill: #343535;
      }

      .st90 {
        fill: #0c0d0d;
      }

      .st91 {
        fill: #313131;
      }

      .st92 {
        fill: #353535;
      }

      .st93 {
        fill: #2b2c2c;
      }

      .st94 {
        fill: #333;
      }

      .st95 {
        fill: #272828;
      }

      .st96 {
        fill: #090909;
      }

      .st97 {
        fill: #141515;
      }

      .st72 {
        fill: url(#Unbenannter_Verlauf_5);
        opacity: .6;
      }

      .st98 {
        fill: #242525;
      }
    </style>
    <linearGradient id="Unbenannter_Verlauf" data-name="Unbenannter Verlauf" x1="77.6" y1="5.7" x2="77.6" y2="30.7" gradientTransform="translate(0 155) scale(1 -1)" gradientUnits="userSpaceOnUse">
      <stop offset="0" stop-color="#fff"/>
      <stop offset="0" stop-color="#f7f7f7"/>
      <stop offset="0" stop-color="#d3d3d3"/>
      <stop offset="0" stop-color="#b2b2b2"/>
      <stop offset=".1" stop-color="#979797"/>
      <stop offset=".2" stop-color="#818181"/>
      <stop offset=".2" stop-color="#707070"/>
      <stop offset=".3" stop-color="#646464"/>
      <stop offset=".3" stop-color="#5e5e5e"/>
      <stop offset=".6" stop-color="#5c5c5c"/>
    </linearGradient>
    <linearGradient id="Unbenannter_Verlauf_2" data-name="Unbenannter Verlauf 2" x1="77.5" y1="154.6" x2="77.5" y2="149" gradientTransform="translate(0 155) scale(1 -1)" gradientUnits="userSpaceOnUse">
      <stop offset="0" stop-color="#6b6b6b"/>
      <stop offset=".2" stop-color="#676767"/>
      <stop offset=".4" stop-color="#5b5b5b"/>
      <stop offset=".6" stop-color="#464646"/>
      <stop offset=".8" stop-color="#2a2a2a"/>
      <stop offset="1" stop-color="#050505"/>
      <stop offset="1" stop-color="#000"/>
    </linearGradient>
    <linearGradient id="Unbenannter_Verlauf_3" data-name="Unbenannter Verlauf 3" x1="77.8" y1="155" x2="77.8" y2="-.7" gradientTransform="translate(0 155) scale(1 -1)" gradientUnits="userSpaceOnUse">
      <stop offset="0" stop-color="#7a7a7a"/>
      <stop offset="1" stop-color="#000"/>
    </linearGradient>
    <linearGradient id="Unbenannter_Verlauf_4" data-name="Unbenannter Verlauf 4" x1="77.8" y1="149.2" x2="77.8" y2="82.8" gradientTransform="translate(0 155) scale(1 -1)" gradientUnits="userSpaceOnUse">
      <stop offset="0" stop-color="#fff"/>
      <stop offset=".2" stop-color="#fcfcfc"/>
      <stop offset=".4" stop-color="#f4f4f4"/>
      <stop offset=".5" stop-color="#e5e5e5"/>
      <stop offset=".6" stop-color="#d1d1d1"/>
      <stop offset=".7" stop-color="#b6b6b6"/>
      <stop offset=".7" stop-color="#959595"/>
      <stop offset=".8" stop-color="#6e6e6e"/>
      <stop offset=".9" stop-color="#414141"/>
      <stop offset="1" stop-color="#0f0f0f"/>
      <stop offset="1" stop-color="#000"/>
    </linearGradient>
    <linearGradient id="Unbenannter_Verlauf_5" data-name="Unbenannter Verlauf 5" x1="77.8" y1="149.2" x2="77.8" y2="124.2" gradientTransform="translate(0 155) scale(1 -1)" gradientUnits="userSpaceOnUse">
      <stop offset="0" stop-color="#fff"/>
      <stop offset="0" stop-color="#f7f7f7"/>
      <stop offset="0" stop-color="#d3d3d3"/>
      <stop offset="0" stop-color="#b2b2b2"/>
      <stop offset=".1" stop-color="#979797"/>
      <stop offset=".2" stop-color="#818181"/>
      <stop offset=".2" stop-color="#707070"/>
      <stop offset=".3" stop-color="#646464"/>
      <stop offset=".3" stop-color="#5e5e5e"/>
      <stop offset=".6" stop-color="#5c5c5c"/>
    </linearGradient>
    <linearGradient id="Unbenannter_Verlauf_6" data-name="Unbenannter Verlauf 6" x1="77.8" y1="151.3" x2="77.8" y2="3.1" gradientTransform="translate(0 155) scale(1 -1)" gradientUnits="userSpaceOnUse">
      <stop offset="0" stop-color="#0d0d0d"/>
      <stop offset=".3" stop-color="#666"/>
      <stop offset=".3" stop-color="#000"/>
      <stop offset=".6" stop-color="#404040"/>
      <stop offset=".9" stop-color="#383838"/>
      <stop offset="1" stop-color="#000"/>
    </linearGradient>
  </defs>
  <path class="st71" d="M130.1,143.6H25c-10.7,0-19.3-8.6-19.3-19.3v5.7c0,10.7,8.6,19.3,19.3,19.3h105.2c10.7,0,19.3-8.6,19.3-19.3v-5.7c-.1,10.7-8.7,19.3-19.4,19.3"/>
  <g class="st65">
    <path class="st17" d="M133.1.4H22c-4,0-7.7,1-10.8,2.8,2.3,0,4.4,1.6,4.5,2.8,2.5-1.1,5.4-1.7,8.4-1.7h106.9c3,0,5.8.6,8.4,1.7-.5-1.2,1.5-3.2,4.4-3.1-3-1.4-6.7-2.5-10.7-2.5"/>
  </g>
  <path class="st19" d="M134.7,0H20.9C9.4,0,0,9.4,0,20.9v113.9c0,11.5,9.4,20.9,20.9,20.9h113.8c11.5,0,20.9-9.4,20.9-20.9V20.9c0-11.5-9.3-20.9-20.9-20.9Z"/>
  <g>
    <path class="st10" d="M134.3.6H21.4C9.9.6.6,9.9.6,21.4v112.9c0,11.4,9.3,20.7,20.7,20.7h112.9c11.4,0,20.7-9.3,20.7-20.7V21.4c.1-11.5-9.2-20.8-20.6-20.8"/>
    <path class="st10" d="M149.1,131.4c0,10.5-8.6,19.1-19.1,19.1H25.9c-10.6,0-19.1-8.6-19.1-19.1V27.3c0-10.5,8.5-19.1,19.1-19.1h104.1c10.5,0,19.1,8.5,19.1,19.1v104.1"/>
  </g>
  <path class="st45" d="M148.7,131.3c0,10.5-8.5,19-19,19H26.1c-10.5,0-19-8.5-19-19V28c0-10.5,8.5-19,19-19h103.6c10.5,0,19,8.5,19,19v103.3"/>
  <path class="st23" d="M148.4,131.3c0,10.4-8.5,18.8-18.9,18.8H26.4c-10.4,0-18.9-8.4-18.9-18.8V28.7c0-10.4,8.5-18.8,18.9-18.8h103.1c10.4,0,18.9,8.4,18.9,18.8v102.6"/>
  <path class="st56" d="M148,131.2c0,10.3-8.4,18.7-18.8,18.7H26.6c-10.4,0-18.8-8.4-18.8-18.7V29.4c0-10.3,8.4-18.7,18.8-18.7h102.6c10.4,0,18.8,8.4,18.8,18.7v101.8"/>
  <path class="st9" d="M147.7,131.1c0,10.2-8.4,18.5-18.7,18.5H26.9c-10.3,0-18.7-8.3-18.7-18.5V30.1c0-10.2,8.4-18.5,18.7-18.5h102.1c10.3,0,18.7,8.3,18.7,18.5v101"/>
  <path class="st44" d="M147.3,131.1c0,10.2-8.3,18.4-18.6,18.4H27.1c-10.3,0-18.6-8.2-18.6-18.4V30.8c0-10.2,8.3-18.4,18.6-18.4h101.6c10.3,0,18.6,8.2,18.6,18.4v100.3"/>
  <path class="st2" d="M147,131c0,10.1-8.3,18.3-18.6,18.3H27.4c-10.2,0-18.5-8.2-18.5-18.3V31.5c0-10.1,8.3-18.2,18.5-18.2h101.1c10.2,0,18.6,8.2,18.6,18.2v99.5h-.1Z"/>
  <path class="st59" d="M146.7,130.9c0,10-8.3,18.1-18.5,18.1H27.6c-10.2,0-18.5-8.1-18.5-18.1V32.3c0-10,8.3-18.1,18.5-18.1h100.6c10.2,0,18.5,8.1,18.5,18.1v98.6"/>
  <path class="st96" d="M146.3,130.9c0,9.9-8.2,18-18.4,18H27.9c-10.1,0-18.4-8-18.4-18V33c0-9.9,8.2-18,18.4-18h100.1c10.1,0,18.4,8,18.4,18v97.9h0Z"/>
  <path class="st80" d="M146,130.8c0,9.8-8.2,17.8-18.3,17.8H28.1c-10.1,0-18.3-8-18.3-17.8V33.7c0-9.8,8.2-17.8,18.3-17.8h99.6c10.1,0,18.3,8,18.3,17.8v97.1"/>
  <path class="st50" d="M145.6,130.7c0,9.8-8.1,17.7-18.2,17.7H28.4c-10,0-18.2-7.9-18.2-17.7V34.4c0-9.8,8.1-17.7,18.2-17.7h99.1c10,0,18.2,7.9,18.2,17.7v96.3h-.1Z"/>
  <path class="st68" d="M145.3,130.7c0,9.7-8.1,17.5-18.1,17.5H28.6c-10,0-18.1-7.9-18.1-17.5V35.1c0-9.7,8.1-17.5,18.1-17.5h98.6c10,0,18.1,7.9,18.1,17.5v95.6"/>
  <path class="st90" d="M144.9,130.6c0,9.6-8.1,17.4-18,17.4H28.9c-9.9,0-18-7.8-18-17.4V35.8c0-9.6,8.1-17.4,18-17.4h98.1c9.9,0,18,7.8,18,17.4v94.8h-.1Z"/>
  <path class="st62" d="M144.6,130.5c0,9.5-8,17.3-17.9,17.3H29.1c-9.9,0-17.9-7.7-17.9-17.3V36.5c0-9.5,8-17.3,17.9-17.3h97.6c9.9,0,17.9,7.7,17.9,17.3v94"/>
  <path class="st3" d="M144.3,130.5c0,9.5-8,17.1-17.8,17.1H29.4c-9.8,0-17.8-7.7-17.8-17.1V37.2c0-9.5,8-17.1,17.8-17.1h97.1c9.8,0,17.8,7.7,17.8,17.1v93.3"/>
  <path class="st46" d="M143.9,130.4c0,9.4-7.9,17-17.7,17H29.6c-9.8,0-17.7-7.6-17.7-17V37.9c0-9.4,7.9-17,17.7-17h96.6c9.8,0,17.7,7.6,17.7,17v92.5"/>
  <path class="st60" d="M143.6,130.4c0,9.3-7.9,16.8-17.6,16.8H29.9c-9.7,0-17.6-7.5-17.6-16.8V38.6c0-9.3,7.9-16.8,17.6-16.8h96.1c9.7,0,17.6,7.5,17.6,16.8v91.8"/>
  <path class="st5" d="M143.2,130.3c0,9.2-7.9,16.7-17.5,16.7H30.1c-9.7,0-17.5-7.5-17.5-16.7V39.3c0-9.2,7.8-16.7,17.5-16.7h95.6c9.7,0,17.5,7.5,17.5,16.7v91"/>
  <path class="st37" d="M142.9,130.2c0,9.1-7.8,16.5-17.5,16.5H30.4c-9.6,0-17.4-7.4-17.4-16.5V40.1c0-9.1,7.8-16.5,17.4-16.5h95.1c9.6,0,17.5,7.4,17.5,16.5v90.1h-.1Z"/>
  <path class="st43" d="M142.6,130.2c0,9.1-7.8,16.4-17.4,16.4H30.6c-9.6,0-17.4-7.3-17.4-16.4V40.8c0-9.1,7.8-16.4,17.4-16.4h94.6c9.6,0,17.4,7.3,17.4,16.4v89.4"/>
  <path class="st78" d="M142.2,130.1c0,9-7.7,16.3-17.3,16.3H30.9c-9.5,0-17.3-7.3-17.3-16.3V41.5c0-9,7.7-16.3,17.3-16.3h94.1c9.5,0,17.3,7.3,17.3,16.3v88.6h0Z"/>
  <path class="st83" d="M141.9,130c0,8.9-7.7,16.1-17.2,16.1H31.1c-9.5,0-17.2-7.2-17.2-16.1V42.2c0-8.9,7.7-16.1,17.2-16.1h93.6c9.5,0,17.2,7.2,17.2,16.1v87.8"/>
  <path class="st97" d="M141.5,130c0,8.8-7.6,16-17.1,16H31.4c-9.4,0-17.1-7.2-17.1-16V42.9c0-8.8,7.6-16,17.1-16h93.1c9.4,0,17.1,7.2,17.1,16v87.1h-.1Z"/>
  <g>
    <path class="st12" d="M141.2,129.9c0,8.7-7.6,15.8-17,15.8H31.6c-9.4,0-17-7.1-17-15.8V43.6c0-8.7,7.6-15.8,17-15.8h92.6c9.4,0,17,7.1,17,15.8v86.3"/>
    <path class="st12" d="M140.8,129.8c0,8.7-7.6,15.7-16.9,15.7H31.9c-9.3,0-16.9-7-16.9-15.7V44.3c0-8.7,7.6-15.7,16.9-15.7h92.1c9.3,0,16.9,7,16.9,15.7v85.5h0Z"/>
  </g>
  <path class="st21" d="M140.5,129.8c0,8.6-7.5,15.6-16.8,15.6H32.1c-9.3,0-16.8-7-16.8-15.6V45c0-8.6,7.5-15.6,16.8-15.6h91.6c9.3,0,16.8,7,16.8,15.6v84.8"/>
  <g>
    <path class="st0" d="M140.2,129.7c0,8.5-7.5,15.4-16.7,15.4H32.4c-9.2,0-16.7-6.9-16.7-15.4V45.7c0-8.5,7.5-15.4,16.7-15.4h91.1c9.2,0,16.7,6.9,16.7,15.4v84"/>
    <path class="st0" d="M139.8,129.6c0,8.4-7.4,15.3-16.6,15.3H32.6c-9.2,0-16.6-6.8-16.6-15.3V46.4c0-8.4,7.4-15.3,16.6-15.3h90.6c9.2,0,16.6,6.8,16.6,15.3v83.2"/>
  </g>
  <path class="st11" d="M139.5,129.6c0,8.4-7.4,15.1-16.5,15.1H32.9c-9.1,0-16.5-6.8-16.5-15.1V47.1c0-8.4,7.4-15.1,16.5-15.1h90.1c9.1,0,16.5,6.8,16.5,15.1v82.5"/>
  <path class="st41" d="M139.1,129.5c0,8.3-7.4,15-16.4,15H33.1c-9.1,0-16.4-6.7-16.4-15V47.8c0-8.3,7.4-15,16.4-15h89.6c9.1,0,16.4,6.7,16.4,15v81.7"/>
  <path class="st82" d="M138.8,129.5c0,8.2-7.3,14.8-16.3,14.8H33.4c-9,0-16.3-6.6-16.3-14.8V48.6c0-8.2,7.3-14.8,16.3-14.8h89.1c9,0,16.3,6.6,16.3,14.8v80.9"/>
  <g>
    <path class="st58" d="M138.5,129.4c0,8.1-7.3,14.7-16.3,14.7H33.6c-9,0-16.3-6.6-16.3-14.7V49.3c0-8.1,7.3-14.7,16.3-14.7h88.6c9,0,16.3,6.6,16.3,14.7v80.1"/>
    <path class="st58" d="M138.1,129.3c0,8-7.2,14.6-16.2,14.6H33.9c-8.9,0-16.2-6.5-16.2-14.6V50c0-8,7.2-14.6,16.2-14.6h88.1c8.9,0,16.2,6.5,16.2,14.6v79.3h-.1Z"/>
  </g>
  <path class="st87" d="M137.8,129.3c0,8-7.2,14.4-16.1,14.4H34.1c-8.9,0-16.1-6.5-16.1-14.4V50.7c0-8,7.2-14.4,16.1-14.4h87.6c8.9,0,16.1,6.5,16.1,14.4v78.6"/>
  <path class="st8" d="M137.4,129.2c0,7.9-7.2,14.3-16,14.3H34.4c-8.8,0-16-6.4-16-14.3V51.4c0-7.9,7.2-14.3,16-14.3h87.1c8.8,0,16,6.4,16,14.3v77.8h-.1Z"/>
  <path class="st81" d="M137.1,129.1c0,7.8-7.1,14.1-15.9,14.1H34.6c-8.8,0-15.9-6.3-15.9-14.1V52.1c0-7.8,7.1-14.1,15.9-14.1h86.6c8.8,0,15.9,6.3,15.9,14.1v77"/>
  <g>
    <path class="st70" d="M136.7,129.1c0,7.7-7.1,14-15.8,14H34.9c-8.7,0-15.8-6.3-15.8-14V52.8c0-7.7,7.1-14,15.8-14h86.1c8.7,0,15.8,6.3,15.8,14v76.3h0Z"/>
    <path class="st70" d="M136.4,129c0,7.6-7,13.9-15.7,13.9H35.1c-8.7,0-15.7-6.2-15.7-13.9V53.5c0-7.6,7-13.8,15.7-13.8h85.6c8.7,0,15.7,6.2,15.7,13.8v75.5"/>
  </g>
  <g>
    <path class="st57" d="M136.1,128.9c0,7.6-7,13.7-15.6,13.7H35.4c-8.6,0-15.6-6.1-15.6-13.7V54.2c0-7.6,7-13.7,15.6-13.7h85.1c8.6,0,15.6,6.1,15.6,13.7v74.7"/>
    <path class="st57" d="M135.7,128.9c0,7.5-7,13.6-15.5,13.6H35.6c-8.6,0-15.5-6.1-15.5-13.6V54.9c0-7.5,6.9-13.6,15.5-13.6h84.6c8.6,0,15.5,6.1,15.5,13.6v74"/>
  </g>
  <path class="st1" d="M135.4,128.8c0,7.4-6.9,13.4-15.4,13.4H35.9c-8.5,0-15.4-6-15.4-13.4V55.6c0-7.4,6.9-13.4,15.4-13.4h84.1c8.5,0,15.4,6,15.4,13.4v73.2"/>
  <path class="st73" d="M135,128.7c0,7.3-6.9,13.3-15.3,13.3H36.1c-8.5,0-15.3-5.9-15.3-13.3V56.4c0-7.3,6.9-13.3,15.3-13.3h83.6c8.5,0,15.3,5.9,15.3,13.3v72.3"/>
  <path class="st28" d="M134.7,128.7c0,7.3-6.8,13.1-15.2,13.1H36.4c-8.4,0-15.2-5.9-15.2-13.1V57.1c0-7.3,6.8-13.1,15.2-13.1h83.1c8.4,0,15.2,5.9,15.2,13.1v71.6"/>
  <path class="st42" d="M134.3,128.6c0,7.2-6.8,13-15.2,13H36.6c-8.4,0-15.1-5.8-15.1-13V57.8c0-7.2,6.8-13,15.1-13h82.6c8.4,0,15.2,5.8,15.2,13v70.8h-.1Z"/>
  <path class="st33" d="M134,128.5c0,7.1-6.7,12.9-15.1,12.9H36.9c-8.3,0-15.1-5.8-15.1-12.9V58.5c0-7.1,6.7-12.9,15.1-12.9h82.1c8.3,0,15.1,5.8,15.1,12.9v70h-.1Z"/>
  <g>
    <path class="st27" d="M133.7,128.5c0,7-6.7,12.7-15,12.7H37.1c-8.3,0-15-5.7-15-12.7V59.2c0-7,6.7-12.7,15-12.7h81.6c8.3,0,15,5.7,15,12.7v69.3"/>
    <path class="st27" d="M133.3,128.4c0,6.9-6.7,12.6-14.9,12.6H37.4c-8.2,0-14.9-5.6-14.9-12.6V59.9c0-6.9,6.7-12.6,14.9-12.6h81.1c8.2,0,14.9,5.6,14.9,12.6v68.5h0Z"/>
  </g>
  <g>
    <path class="st22" d="M133,128.4c0,6.9-6.6,12.4-14.8,12.4H37.6c-8.2,0-14.8-5.6-14.8-12.4V60.6c0-6.9,6.6-12.4,14.8-12.4h80.6c8.2,0,14.8,5.6,14.8,12.4v67.8"/>
    <path class="st22" d="M132.6,128.3c0,6.8-6.6,12.3-14.7,12.3H37.9c-8.1,0-14.7-5.5-14.7-12.3V61.3c0-6.8,6.6-12.3,14.7-12.3h80.1c8.1,0,14.7,5.5,14.7,12.3v67h-.1Z"/>
  </g>
  <g>
    <path class="st98" d="M132.3,128.2c0,6.7-6.5,12.2-14.6,12.2H38.1c-8.1,0-14.6-5.4-14.6-12.2V62c0-6.7,6.5-12.1,14.6-12.1h79.6c8.1,0,14.6,5.4,14.6,12.1v66.2"/>
    <path class="st98" d="M132,128.2c0,6.6-6.5,12-14.5,12H38.4c-8,0-14.5-5.4-14.5-12V62.7c0-6.6,6.5-12,14.5-12h79.1c8,0,14.5,5.4,14.5,12v65.5"/>
  </g>
  <g>
    <path class="st54" d="M131.6,128.1c0,6.6-6.5,11.9-14.4,11.9H38.6c-8,0-14.4-5.3-14.4-11.9V63.4c0-6.6,6.5-11.9,14.4-11.9h78.6c8,0,14.4,5.3,14.4,11.9v64.7"/>
    <path class="st54" d="M131.3,128c0,6.5-6.4,11.7-14.3,11.7H38.9c-7.9,0-14.3-5.3-14.3-11.7v-63.9c0-6.5,6.4-11.7,14.3-11.7h78.1c7.9,0,14.3,5.2,14.3,11.7v63.9"/>
  </g>
  <g>
    <path class="st55" d="M130.9,128c0,6.4-6.4,11.6-14.2,11.6H39.1c-7.9,0-14.2-5.2-14.2-11.6v-63.1c0-6.4,6.4-11.6,14.2-11.6h77.6c7.9,0,14.2,5.2,14.2,11.6v63.1"/>
    <path class="st55" d="M130.6,127.9c0,6.3-6.3,11.4-14.1,11.4H39.4c-7.8,0-14.1-5.1-14.1-11.4v-62.3c0-6.3,6.3-11.4,14.1-11.4h77.1c7.8,0,14.1,5.1,14.1,11.4v62.3"/>
  </g>
  <g>
    <path class="st95" d="M130.2,127.8c0,6.2-6.3,11.3-14.1,11.3H39.6c-7.8,0-14-5.1-14-11.3v-61.5c0-6.2,6.3-11.3,14-11.3h76.6c7.8,0,14.1,5.1,14.1,11.3v61.5h-.1Z"/>
    <path class="st95" d="M129.9,127.8c0,6.2-6.3,11.2-14,11.2H39.9c-7.7,0-14-5-14-11.2v-60.8c0-6.2,6.2-11.2,14-11.2h76.1c7.7,0,14,5,14,11.2v60.8h-.1Z"/>
  </g>
  <path class="st16" d="M129.6,127.7c0,6.1-6.2,11-13.9,11H40.1c-7.7,0-13.9-4.9-13.9-11v-60c0-6.1,6.2-11,13.9-11h75.6c7.7,0,13.9,4.9,13.9,11v60"/>
  <path class="st26" d="M129.2,127.6c0,6-6.2,10.9-13.8,10.9H40.4c-7.6,0-13.8-4.9-13.8-10.9v-59.2c0-6,6.2-10.9,13.8-10.9h75.1c7.6,0,13.8,4.9,13.8,10.9v59.2h0Z"/>
  <path class="st34" d="M128.9,127.6c0,5.9-6.1,10.7-13.7,10.7H40.6c-7.6,0-13.7-4.8-13.7-10.7v-58.5c0-5.9,6.1-10.7,13.7-10.7h74.6c7.6,0,13.7,4.8,13.7,10.7v58.5"/>
  <path class="st48" d="M128.5,127.5c0,5.8-6.1,10.6-13.6,10.6H40.9c-7.5,0-13.6-4.7-13.6-10.6v-57.7c0-5.8,6.1-10.6,13.6-10.6h74.1c7.5,0,13.6,4.7,13.6,10.6v57.7h-.1Z"/>
  <path class="st69" d="M128.2,127.4c0,5.8-6,10.4-13.5,10.4H41.1c-7.5,0-13.5-4.7-13.5-10.4v-56.9c0-5.8,6-10.4,13.5-10.4h73.6c7.5,0,13.5,4.7,13.5,10.4v56.9"/>
  <path class="st74" d="M127.8,127.4c0,5.7-6,10.3-13.4,10.3H41.4c-7.4,0-13.4-4.6-13.4-10.3v-56.2c0-5.7,6-10.3,13.4-10.3h73.1c7.4,0,13.4,4.6,13.4,10.3v56.2h0Z"/>
  <path class="st6" d="M127.5,127.3c0,5.6-6,10.2-13.3,10.2H41.6c-7.4,0-13.3-4.6-13.3-10.2v-55.4c0-5.6,6-10.2,13.3-10.2h72.6c7.4,0,13.3,4.5,13.3,10.2v55.4"/>
  <g>
    <path class="st93" d="M127.2,127.3c0,5.5-5.9,10-13.2,10H41.9c-7.3,0-13.2-4.5-13.2-10v-54.6c0-5.5,5.9-10,13.2-10h72.1c7.3,0,13.2,4.5,13.2,10v54.6"/>
    <path class="st93" d="M126.8,127.2c0,5.5-5.9,9.9-13.1,9.9H42.1c-7.3,0-13.1-4.4-13.1-9.9v-53.8c0-5.5,5.9-9.9,13.1-9.9h71.6c7.3,0,13.1,4.4,13.1,9.9v53.8"/>
  </g>
  <g>
    <path class="st14" d="M126.5,127.1c0,5.4-5.8,9.7-13,9.7H42.4c-7.2,0-13-4.4-13-9.7v-53c0-5.4,5.8-9.7,13-9.7h71.1c7.2,0,13,4.4,13,9.7v53"/>
    <path class="st14" d="M126.1,127.1c0,5.3-5.8,9.6-13,9.6H42.6c-7.2,0-12.9-4.3-12.9-9.6v-52.3c0-5.3,5.8-9.6,12.9-9.6h70.6c7.2,0,13,4.3,13,9.6v52.3h0Z"/>
  </g>
  <g>
    <path class="st38" d="M125.8,127c0,5.2-5.8,9.5-12.9,9.5H42.9c-7.1,0-12.9-4.2-12.9-9.5v-51.5c0-5.2,5.8-9.5,12.9-9.5h70.1c7.1,0,12.9,4.2,12.9,9.5v51.5h0Z"/>
    <path class="st38" d="M125.5,126.9c0,5.1-5.7,9.3-12.8,9.3H43.1c-7.1,0-12.8-4.2-12.8-9.3v-50.7c0-5.1,5.7-9.3,12.8-9.3h69.6c7.1,0,12.8,4.2,12.8,9.3v50.7"/>
  </g>
  <g>
    <path class="st85" d="M125.1,126.9c0,5.1-5.7,9.2-12.7,9.2H43.4c-7,0-12.7-4.1-12.7-9.2v-50c0-5.1,5.7-9.2,12.7-9.2h69.1c7,0,12.7,4.1,12.7,9.2v50h0Z"/>
    <path class="st85" d="M124.8,126.8c0,5-5.6,9-12.6,9H43.6c-6.9,0-12.6-4-12.6-9v-49.2c0-5,5.6-9,12.6-9h68.6c6.9,0,12.6,4,12.6,9v49.2"/>
  </g>
  <path class="st25" d="M124.4,126.7c0,4.9-5.6,8.9-12.5,8.9H43.9c-6.9,0-12.5-4-12.5-8.9v-48.4c0-4.9,5.6-8.9,12.5-8.9h68.1c6.9,0,12.5,4,12.5,8.9v48.4h0Z"/>
  <path class="st24" d="M124.1,126.7c0,4.8-5.6,8.7-12.4,8.7H44.1c-6.8,0-12.4-3.9-12.4-8.7v-47.7c0-4.8,5.5-8.7,12.4-8.7h67.6c6.8,0,12.4,3.9,12.4,8.7v47.7"/>
  <path class="st84" d="M123.7,126.6c0,4.8-5.5,8.6-12.3,8.6H44.4c-6.8,0-12.3-3.9-12.3-8.6v-46.9c0-4.7,5.5-8.6,12.3-8.6h67.1c6.8,0,12.3,3.9,12.3,8.6v46.9h0Z"/>
  <path class="st76" d="M123.4,126.5c0,4.7-5.5,8.5-12.2,8.5H44.6c-6.7,0-12.2-3.8-12.2-8.5v-46.1c0-4.7,5.5-8.5,12.2-8.5h66.6c6.7,0,12.2,3.8,12.2,8.5v46.1"/>
  <path class="st91" d="M123.1,126.5c0,4.6-5.4,8.3-12.1,8.3H44.9c-6.7,0-12.1-3.7-12.1-8.3v-45.3c0-4.6,5.4-8.3,12.1-8.3h66.1c6.7,0,12.1,3.7,12.1,8.3v45.3"/>
  <path class="st30" d="M122.7,126.4c0,4.5-5.4,8.2-12,8.2H45.1c-6.6,0-12-3.7-12-8.2v-44.5c0-4.5,5.4-8.2,12-8.2h65.6c6.6,0,12,3.7,12,8.2v44.5"/>
  <path class="st4" d="M122.4,126.4c0,4.4-5.3,8-11.9,8H45.4c-6.6,0-11.9-3.6-11.9-8v-43.8c0-4.4,5.3-8,11.9-8h65.1c6.6,0,11.9,3.6,11.9,8v43.8"/>
  <path class="st88" d="M122,126.3c0,4.4-5.3,7.9-11.8,7.9H45.6c-6.5,0-11.8-3.5-11.8-7.9v-43c0-4.4,5.3-7.9,11.8-7.9h64.6c6.5,0,11.8,3.5,11.8,7.9v43"/>
  <path class="st94" d="M121.7,126.2c0,4.3-5.3,7.8-11.8,7.8H45.9c-6.5,0-11.8-3.5-11.8-7.8v-42.2c0-4.3,5.3-7.7,11.8-7.7h64.1c6.5,0,11.8,3.5,11.8,7.7v42.2h0Z"/>
  <g>
    <path class="st79" d="M121.3,126.2c0,4.2-5.2,7.6-11.7,7.6h-63.5c-6.4,0-11.7-3.4-11.7-7.6v-41.5c0-4.2,5.2-7.6,11.7-7.6h63.6c6.4,0,11.7,3.4,11.7,7.6v41.5h0Z"/>
    <path class="st79" d="M121,126.1c0,4.1-5.2,7.5-11.6,7.5h-63c-6.4,0-11.6-3.3-11.6-7.5v-40.7c0-4.1,5.2-7.5,11.6-7.5h63.1c6.4,0,11.6,3.3,11.6,7.5v40.7h0Z"/>
  </g>
  <path class="st35" d="M120.7,126c0,4-5.1,7.3-11.5,7.3h-62.6c-6.3,0-11.5-3.3-11.5-7.3v-39.9c0-4,5.1-7.3,11.5-7.3h62.6c6.3,0,11.5,3.3,11.5,7.3v39.9"/>
  <path class="st89" d="M120.3,126c0,4-5.1,7.2-11.4,7.2h-62c-6.3,0-11.4-3.2-11.4-7.2v-39.2c0-4,5.1-7.2,11.4-7.2h62.1c6.3,0,11.4,3.2,11.4,7.2v39.2h0Z"/>
  <path class="st92" d="M120,125.9c0,3.9-5.1,7-11.3,7h-61.6c-6.2,0-11.3-3.2-11.3-7v-38.4c0-3.9,5.1-7,11.3-7h61.6c6.2,0,11.3,3.2,11.3,7v38.4"/>
  <path class="st47" d="M119.6,125.8c0,3.8-5,6.9-11.2,6.9h-61c-6.2,0-11.2-3.1-11.2-6.9v-37.6c0-3.8,5-6.9,11.2-6.9h61.1c6.2,0,11.2,3.1,11.2,6.9v37.6h0Z"/>
  <path class="st20" d="M119.3,125.8c0,3.7-5,6.8-11.1,6.8h-60.6c-6.1,0-11.1-3-11.1-6.8v-36.8c0-3.7,5-6.8,11.1-6.8h60.6c6.1,0,11.1,3,11.1,6.8v36.8"/>
  <path class="st7" d="M119,125.7c0,3.7-4.9,6.6-11,6.6h-60.1c-6.1,0-11-3-11-6.6v-36c0-3.7,4.9-6.6,11-6.6h60.1c6.1,0,11,3,11,6.6v36"/>
  <path class="st39" d="M118.6,125.6c0,3.6-4.9,6.5-10.9,6.5h-59.6c-6,0-10.9-2.9-10.9-6.5v-35.2c0-3.6,4.9-6.5,10.9-6.5h59.6c6,0,10.9,2.9,10.9,6.5v35.2"/>
  <path class="st52" d="M118.3,125.6c0,3.5-4.9,6.3-10.8,6.3h-59c-6,0-10.8-2.8-10.8-6.3v-34.5c0-3.5,4.8-6.3,10.8-6.3h59c6,0,10.8,2.8,10.8,6.3v34.5"/>
  <path class="st75" d="M117.9,125.5c0,3.4-4.8,6.2-10.7,6.2h-58.6c-5.9,0-10.7-2.8-10.7-6.2v-33.7c0-3.4,4.8-6.2,10.7-6.2h58.5c5.9,0,10.7,2.8,10.7,6.2v33.7h0Z"/>
  <path class="st49" d="M117.6,125.4c0,3.3-4.8,6-10.7,6h-58c-5.9,0-10.7-2.7-10.7-6v-33c0-3.3,4.8-6,10.7-6h58c5.9,0,10.7,2.7,10.7,6v33"/>
  <path class="st67" d="M117.2,125.4c0,3.3-4.7,5.9-10.6,5.9h-57.5c-5.8,0-10.6-2.6-10.6-5.9v-32.2c0-3.3,4.7-5.9,10.6-5.9h57.5c5.8,0,10.6,2.6,10.6,5.9v32.2"/>
  <path class="st13" d="M116.9,125.3c0,3.2-4.7,5.8-10.5,5.8h-57c-5.8,0-10.5-2.6-10.5-5.8v-31.4c0-3.2,4.7-5.8,10.5-5.8h57c5.8,0,10.5,2.6,10.5,5.8v31.4"/>
  <path class="st77" d="M116.6,125.3c0,3.1-4.6,5.6-10.4,5.6h-56.6c-5.7,0-10.4-2.5-10.4-5.6v-30.7c0-3.1,4.6-5.6,10.4-5.6h56.5c5.7,0,10.4,2.5,10.4,5.6v30.7h0Z"/>
  <path class="st36" d="M116.2,125.2c0,3-4.6,5.5-10.3,5.5h-56c-5.7,0-10.3-2.5-10.3-5.5v-29.9c0-3,4.6-5.5,10.3-5.5h56c5.7,0,10.3,2.5,10.3,5.5v29.9"/>
  <path class="st86" d="M115.9,125.1c0,2.9-4.6,5.3-10.2,5.3h-55.6c-5.6,0-10.2-2.4-10.2-5.3v-29.1c0-2.9,4.6-5.3,10.2-5.3h55.5c5.6,0,10.2,2.4,10.2,5.3v29.1h0Z"/>
  <path class="st29" d="M115.5,125.1c0,2.9-4.5,5.2-10.1,5.2h-55c-5.6,0-10.1-2.3-10.1-5.2v-28.4c0-2.9,4.5-5.2,10.1-5.2h55c5.6,0,10.1,2.3,10.1,5.2v28.4"/>
  <path class="st63" d="M115.2,125c0,2.8-4.5,5.1-10,5.1h-54.6c-5.5,0-10-2.3-10-5.1v-27.5c0-2.8,4.5-5.1,10-5.1h54.5c5.5,0,10,2.3,10,5.1v27.5h0Z"/>
  <path class="st15" d="M114.8,124.9c0,2.7-4.4,4.9-9.9,4.9h-54c-5.5,0-9.9-2.2-9.9-4.9v-26.7c0-2.7,4.4-4.9,9.9-4.9h54c5.5,0,9.9,2.2,9.9,4.9v26.7"/>
  <path class="st61" d="M114.5,124.9c0,2.6-4.4,4.8-9.8,4.8h-53.6c-5.4,0-9.8-2.1-9.8-4.8v-26c0-2.6,4.4-4.8,9.8-4.8h53.5c5.4,0,9.8,2.1,9.8,4.8v26h0Z"/>
  <g>
    <path class="st40" d="M114.2,124.8c0,2.6-4.4,4.6-9.7,4.6h-53c-5.4,0-9.7-2.1-9.7-4.6v-25.2c0-2.6,4.4-4.6,9.7-4.6h53c5.4,0,9.7,2.1,9.7,4.6v25.2"/>
    <path class="st40" d="M113.8,124.7c0,2.5-4.3,4.5-9.6,4.5h-52.6c-5.3,0-9.6-2-9.6-4.5v-24.4c0-2.5,4.3-4.5,9.6-4.5h52.5c5.3,0,9.6,2,9.6,4.5v24.4h0Z"/>
  </g>
  <path class="st32" d="M113.5,124.7c0,2.4-4.3,4.3-9.6,4.3h-52c-5.3,0-9.5-1.9-9.5-4.3v-23.7c0-2.4,4.3-4.3,9.5-4.3h52c5.3,0,9.6,1.9,9.6,4.3v23.7"/>
  <g class="st66">
    <path class="st18" d="M130.4,5.8H25.2C14.5,5.8,5.9,14.4,5.9,25.1v38c20.9,5.7,45.5,9.1,71.9,9.1s51.1-3.3,71.9-9.1V25.1c0-10.6-8.6-19.3-19.3-19.3"/>
  </g>
  <path class="st72" d="M25.2,11.5h105.2c10.7,0,19.3,8.6,19.3,19.3v-5.7c0-10.7-8.6-19.3-19.3-19.3H25.2C14.5,5.8,5.9,14.4,5.9,25.1v5.7c0-10.7,8.7-19.3,19.3-19.3"/>
  <g class="st64">
    <path class="st31" d="M24.1,151.9c-11.3,0-20.4-9.1-20.4-20.4V24.1C3.7,12.8,12.8,3.7,24.1,3.7h107.3c11.3,0,20.4,9.1,20.4,20.4v107.3c0,11.3-9.1,20.4-20.4,20.4H24.1s0,.1,0,.1ZM5.2,24.1v107.3c0,10.5,8.5,18.9,19,19h107.3c10.5,0,19-8.5,19-19V24.1c0-10.5-8.5-19-19-19H24.1c-10.4,0-18.9,8.6-18.9,19Z"/>
  </g>
  <path class="st53" d="M153.5.9c-1.3,0-2.4,1.1-2.4,2.4s1.1,2.4,2.4,2.4,2.4-1.1,2.4-2.4c-.1-1.3-1.1-2.4-2.4-2.4M153.5,5.4c-1.2,0-2.1-1-2.1-2.1s1-2.1,2.1-2.1,2.1,1,2.1,2.1-1,2.1-2.1,2.1M154.2,3c0-.4-.3-.6-.8-.6h-.8v2h.5v-.7h.2l.3.7h.5l-.4-.8c.4-.2.5-.3.5-.6M153.4,3.2h-.3v-.5h.3c.2,0,.3,0,.3.3s-.1.2-.3.2"/>
  <g id="Ebene_1-2">
    <g>
      <path class="st51" d="M23.4,66.6v-17.9h8.9v15.4c0,3,2.4,4.5,4.5,4.5s4.5-1.4,4.5-4.5v-15.4h8.9v27.1h-8.1l-.3-2.6c-1.9,2.4-5.2,3.4-8.4,3.4-5.1,0-10-3.6-10-10.1h0Z"/>
      <path class="st51" d="M57.3,75.8v-27.1h8.1l.3,2.8c1.9-2.4,5.2-3.4,8.4-3.4,5.1,0,10,3.6,10,10.1v17.6h-8.9v-15.1c0-3-2.4-4.5-4.5-4.5s-4.5,1.4-4.5,4.5v15.1h-8.9,0Z"/>
      <path class="st51" d="M99.7,48.7v27.1h-8.9v-27.1h8.9Z"/>
      <path class="st51" d="M105.6,62.3c0-8.1,5-14.2,12.6-14.2s6.6,1.4,8.2,3.4l.3-2.8h8.3v38.4h-8.9v-13.3c-1.6,1.5-4.6,2.6-7.9,2.6-7.7,0-12.6-6-12.6-14.1ZM120.5,68.4c3.3,0,5.8-2.6,5.8-6.2s-2.5-6.2-5.8-6.2-6,2.4-6,6.2,2.6,6.2,6,6.2Z"/>
      <path class="st51" d="M25,84.5h9.9l5.7,18.1,5.6-18.1h9.9l-12.6,31.1c-2.2,5.4-6.5,7.9-11.5,7.9s-4-.5-5.8-1.4l1.2-7c1.1.5,2.2.7,3.2.7,2.4,0,4.5-1.4,5.3-4.1l-10.9-27.1Z"/>
      <path class="st51" d="M72.2,83.9c8.4,0,14.5,6,14.5,14.1s-6.2,14.1-14.5,14.1-14.5-6-14.5-14.1,6.2-14.1,14.5-14.1ZM72.2,104.1c3.4,0,5.8-2.6,5.8-6s-2.4-5.9-5.8-5.9-5.8,2.6-5.8,5.9,2.4,6,5.8,6Z"/>
      <path class="st51" d="M92.3,102.4v-17.9h8.9v15.4c0,3,2.4,4.5,4.5,4.5s4.5-1.4,4.5-4.5v-15.4h8.9v27.1h-8.1l-.3-2.6c-1.9,2.4-5.2,3.4-8.4,3.4-5.1,0-10-3.6-10-10.1h0Z"/>
      <path class="st51" d="M129.5,102.4c2.7,0,5,2.1,5,4.9s-2.2,4.9-5,4.9-4.9-2.1-4.9-4.9,2.2-4.9,4.9-4.9Z"/>
    </g>
  </g>
</svg>